<svg width="330" height="77" viewBox="0 0 330 77" fill="none" xmlns="http://www.w3.org/2000/svg">
<rect y="29" width="34" height="34" rx="17" fill="#F4421F"/>
<rect x="42.936" y="29" width="34" height="34" rx="17" fill="#F4421F"/>
<rect x="85.8716" y="29" width="34" height="34" rx="17" fill="#F4421F"/>
<path d="M145.928 57.368H167.56V63H139.08V15.64H145.928V57.368ZM203.404 45.464C203.404 46.296 203.404 47.512 203.276 48.28H177.228C177.868 54.488 181.132 58.456 187.084 58.456C191.18 58.456 194.508 56.536 196.876 53.464L201.868 56.152C198.668 60.888 193.42 63.64 187.148 63.64C177.1 63.64 170.316 56.6 170.316 46.04C170.316 35.352 176.908 28.184 186.892 28.184C196.812 28.184 203.404 35.096 203.404 45.464ZM186.892 33.368C181.26 33.368 177.804 37.336 177.228 43.8H196.684C196.108 37.272 192.524 33.368 186.892 33.368ZM222.385 58.008C224.562 58.008 226.674 57.688 228.786 56.856V62.104C226.354 63.192 223.41 63.64 220.274 63.64C214.385 63.64 210.482 59.608 210.482 53.592V18.84H217.01V28.824H228.274V34.2H217.01V52.248C217.01 55.704 219.186 58.008 222.385 58.008ZM241.077 33.944C243.637 30.168 248.181 28.184 254.133 28.184L253.685 34.2C245.941 34.2 241.205 38.04 241.205 43.864V63H234.677V28.824H240.949L241.077 33.944ZM284.56 28.824H290.896V63H284.56L284.432 56.728C282 60.952 277.84 63.64 271.824 63.64C262.416 63.64 255.44 56.6 255.44 46.04C255.44 35.352 262.416 28.184 271.824 28.184C277.84 28.184 282 30.872 284.432 35.096L284.56 28.824ZM273.296 58.008C279.888 58.008 284.368 53.208 284.368 45.912C284.368 38.68 279.888 33.816 273.296 33.816C266.64 33.816 262.224 38.68 262.224 45.976C262.224 53.208 266.64 58.008 273.296 58.008ZM298.12 63V58.776L317.192 34.2H298.44V28.824H326.472V33.048L307.4 57.56H327.24V63H298.12Z" fill="#3E3E3E"/>
</svg>
