<svg width="328" height="48" viewBox="0 0 328 48" fill="none" xmlns="http://www.w3.org/2000/svg">
<rect y="13.36" width="34" height="34" rx="17" fill="#212121"/>
<rect x="42.936" y="13.36" width="34" height="34" rx="17" fill="#212121"/>
<rect x="85.8716" y="13.36" width="34" height="34" rx="17" fill="#212121"/>
<path d="M145.928 41.728H167.56V47.36H139.08V0H145.928V41.728Z" fill="#212121"/>
<path d="M203.404 29.824C203.404 30.656 203.404 31.872 203.276 32.64H177.228C177.868 38.848 181.132 42.816 187.084 42.816C191.18 42.816 194.508 40.896 196.876 37.824L201.868 40.512C198.668 45.248 193.42 48 187.148 48C177.1 48 170.316 40.96 170.316 30.4C170.316 19.712 176.908 12.544 186.892 12.544C196.812 12.544 203.404 19.456 203.404 29.824ZM186.892 17.728C181.26 17.728 177.804 21.696 177.228 28.16H196.684C196.108 21.632 192.524 17.728 186.892 17.728Z" fill="#212121"/>
<path d="M222.386 42.368C224.562 42.368 226.674 42.048 228.786 41.216V46.464C226.354 47.552 223.41 48 220.274 48C214.386 48 210.482 43.968 210.482 37.952V3.2H217.01V13.184H228.274V18.56H217.01V36.608C217.01 40.064 219.186 42.368 222.386 42.368Z" fill="#212121"/>
<path d="M241.077 18.304C243.637 14.528 248.181 12.544 254.133 12.544L253.685 18.56C245.941 18.56 241.205 22.4 241.205 28.224V47.36H234.677V13.184H240.949L241.077 18.304Z" fill="#212121"/>
<path d="M284.56 13.184H290.896V47.36H284.56L284.432 41.088C282 45.312 277.84 48 271.824 48C262.416 48 255.44 40.96 255.44 30.4C255.44 19.712 262.416 12.544 271.824 12.544C277.84 12.544 282 15.232 284.432 19.456L284.56 13.184ZM273.296 42.368C279.888 42.368 284.368 37.568 284.368 30.272C284.368 23.04 279.888 18.176 273.296 18.176C266.64 18.176 262.224 23.04 262.224 30.336C262.224 37.568 266.64 42.368 273.296 42.368Z" fill="#212121"/>
<path d="M298.12 47.36V43.136L317.192 18.56H298.44V13.184H326.472V17.408L307.4 41.92H327.24V47.36H298.12Z" fill="#212121"/>
</svg>
