<svg width="20" height="134" viewBox="0 0 20 134" fill="none" xmlns="http://www.w3.org/2000/svg">
<rect x="5.4707" y="134" width="13.9225" height="13.9225" rx="6.96126" transform="rotate(-90 5.4707 134)" fill="#212121"/>
<rect x="5.4707" y="116.418" width="13.9225" height="13.9225" rx="6.96126" transform="rotate(-90 5.4707 116.418)" fill="#212121"/>
<rect x="5.4707" y="98.8367" width="13.9225" height="13.9225" rx="6.96126" transform="rotate(-90 5.4707 98.8367)" fill="#212121"/>
<path d="M17.087 74.2445L17.087 65.3865L19.3933 65.3865L19.3933 77.0487L0 77.0487L-1.22574e-07 74.2445L17.087 74.2445Z" fill="#212121"/>
<path d="M12.2125 50.7089C12.5532 50.7089 13.0511 50.7089 13.3656 50.7613L13.3656 61.4276C15.9077 61.1656 17.5326 59.829 17.5326 57.3917C17.5326 55.7145 16.7463 54.3517 15.4884 53.382L16.5891 51.3379C18.5284 52.6482 19.6553 54.7972 19.6553 57.3655C19.6553 61.48 16.7725 64.258 12.4484 64.258C8.07179 64.258 5.13659 61.5587 5.13659 57.4704C5.13659 53.4083 7.96696 50.7089 12.2125 50.7089ZM7.25937 57.4704C7.25937 59.7766 8.88421 61.1918 11.5311 61.4276L11.5311 53.4607C8.858 53.6965 7.25937 55.1641 7.25937 57.4704Z" fill="#212121"/>
<path d="M17.3491 42.9363C17.3491 42.0452 17.2181 41.1804 16.8774 40.3156L19.0264 40.3156C19.4719 41.3114 19.6553 42.517 19.6553 43.8011C19.6553 46.2122 18.0043 47.8108 15.5408 47.8108L1.31035 47.8108L1.31035 45.1377L5.39866 45.1377L5.39866 40.5252L7.60006 40.5252L7.60006 45.1377L14.9905 45.1377C16.4056 45.1377 17.3491 44.2466 17.3491 42.9363Z" fill="#212121"/>
<path d="M7.49523 35.2826C5.94901 34.2343 5.13659 32.3736 5.13659 29.9363L7.60006 30.1198C7.60006 33.2908 9.17249 35.2301 11.5573 35.2301L19.3933 35.2301L19.3933 37.9033L5.39866 37.9033L5.39866 35.335L7.49523 35.2826Z" fill="#212121"/>
<path d="M5.39866 17.4769L5.39866 14.8824L19.3933 14.8824L19.3933 17.4769L16.825 17.5293C18.5546 18.5252 19.6553 20.2286 19.6553 22.6921C19.6553 26.5445 16.7725 29.4011 12.4484 29.4011C8.07179 29.4011 5.13659 26.5445 5.13659 22.6921C5.13659 20.2286 6.23729 18.5252 7.96696 17.5293L5.39866 17.4769ZM17.3491 22.0893C17.3491 19.39 15.3836 17.5555 12.396 17.5555C9.43456 17.5555 7.44282 19.39 7.44282 22.0893C7.44282 24.8149 9.43456 26.6232 12.4222 26.6232C15.3836 26.6232 17.3491 24.8149 17.3491 22.0893Z" fill="#212121"/>
<path d="M19.3933 11.9242L17.6636 11.9242L7.60006 4.11453L7.60006 11.7932L5.39866 11.7932L5.39866 0.314499L7.12833 0.314499L17.1657 8.12421L17.1657 1.45085e-05L19.3933 1.44111e-05L19.3933 11.9242Z" fill="#212121"/>
</svg>
