<svg width="144" height="62" viewBox="0 0 144 62" fill="none" xmlns="http://www.w3.org/2000/svg">
<rect x="57" y="18" width="34" height="35" fill="#FFD936"/>
<path d="M14.6013 49V21.7696H25.4492V49H14.6013ZM25.4492 34.2779L20.4127 29.7948C21.8148 26.843 23.4383 24.6845 25.2831 23.3193C27.1649 21.9171 29.5079 21.2161 32.3121 21.2161C33.5667 21.2161 34.6367 21.3637 35.5222 21.6589C36.4447 21.954 37.1826 22.3784 37.7361 22.9318L31.648 31.5659C31.3897 31.2707 31.0023 31.0309 30.4857 30.8464C30.006 30.625 29.4341 30.5143 28.77 30.5143C27.663 30.5143 26.8328 30.8464 26.2794 31.5105C25.7259 32.1378 25.4492 33.0602 25.4492 34.2779ZM41.3522 49V21.7696H52.2001V49H41.3522ZM46.7761 19.2236C45.1896 19.2236 43.8612 18.6886 42.7912 17.6186C41.7581 16.5116 41.2415 15.1649 41.2415 13.5783C41.2415 11.9917 41.7581 10.6634 42.7912 9.59335C43.8612 8.48642 45.1896 7.93295 46.7761 7.93295C48.3996 7.93295 49.728 8.48642 50.7611 9.59335C51.7942 10.6634 52.3108 11.9917 52.3108 13.5783C52.3108 15.1649 51.7942 16.5116 50.7611 17.6186C49.728 18.6886 48.3996 19.2236 46.7761 19.2236ZM110.211 49.6642C107.038 49.6642 104.252 49.0738 101.854 47.8931C99.4557 46.6755 97.5739 44.9966 96.2087 42.8565C94.8804 40.6796 94.2162 38.189 94.2162 35.3848C94.2162 32.6175 94.862 30.1638 96.1534 28.0237C97.4817 25.8836 99.2897 24.2048 101.577 22.9872C103.865 21.7327 106.448 21.1054 109.326 21.1054C112.167 21.1054 114.676 21.6958 116.853 22.8765C119.03 24.0203 120.727 25.6254 121.945 27.6916C123.199 29.7579 123.827 32.1193 123.827 34.776C123.827 35.3294 123.79 35.9198 123.716 36.5471C123.679 37.1374 123.568 37.8385 123.384 38.6502L98.81 38.8163V32.1747L119.344 32.0086L114.307 34.942C114.307 33.4661 114.123 32.2669 113.754 31.3445C113.421 30.3852 112.905 29.6656 112.204 29.186C111.503 28.7063 110.617 28.4665 109.547 28.4665C108.44 28.4665 107.481 28.7432 106.669 29.2967C105.857 29.8501 105.23 30.6434 104.787 31.6766C104.382 32.7097 104.179 33.9642 104.179 35.4401C104.179 36.9529 104.4 38.2259 104.843 39.259C105.322 40.2553 106.005 41.0117 106.891 41.5282C107.776 42.0448 108.883 42.3031 110.211 42.3031C111.503 42.3031 112.628 42.1001 113.587 41.6943C114.584 41.2515 115.488 40.5689 116.299 39.6465L121.723 45.0151C120.358 46.5648 118.716 47.727 116.798 48.5019C114.879 49.2767 112.684 49.6642 110.211 49.6642Z" fill="#1E1E1E"/>
<path d="M86 38.8955H79.6875V31.9238L73.2148 42.3184H86V49H62V33.9375L72.8848 28.0566L62 28V22H86V38.8955Z" fill="#1E1E1E"/>
<rect x="126" y="42.332" width="6.44875" height="6.44875" fill="#1E1E1E"/>
</svg>
