<svg width="88" height="22" viewBox="0 0 88 22" fill="none" xmlns="http://www.w3.org/2000/svg">
<path d="M11.3623 0C10.5851 0 9.80273 0.158113 9.17839 0.503097L1.04612 5.00017C0.733965 5.17266 0.480806 5.37788 0.297801 5.62647C0.114796 5.87506 0 6.1862 0 6.51973C0 6.85326 0.114797 7.16439 0.297801 7.41298C0.480806 7.66157 0.733965 7.86679 1.04612 8.03929L1.93953 8.53212L1.04612 9.02495C0.733896 9.19747 0.488441 9.40235 0.305437 9.65125C0.122433 9.90017 0 10.2109 0 10.5445C0 10.8782 0.122435 11.1889 0.305437 11.4378C0.488439 11.6867 0.733897 11.8916 1.04612 12.0641L1.93953 12.5569L1.04612 13.0497C0.733895 13.2223 0.48844 13.4272 0.305437 13.6761C0.122434 13.925 0 14.2357 0 14.5693C0 14.9029 0.122434 15.2136 0.305437 15.4626C0.48844 15.7114 0.733895 15.9163 1.04612 16.0889L9.17839 20.586C10.4269 21.2759 12.2823 21.2759 13.5309 20.586L21.6784 16.0889C21.9906 15.9163 22.2361 15.7114 22.4191 15.4626C22.6021 15.2136 22.7245 14.9029 22.7245 14.5693C22.7245 14.2357 22.6021 13.925 22.4191 13.6761C22.2361 13.4272 21.9906 13.2223 21.6784 13.0497L20.7774 12.5569L21.6784 12.0641C21.9906 11.8916 22.2361 11.6867 22.4191 11.4378C22.6021 11.1889 22.7245 10.8782 22.7245 10.5445C22.7245 10.2109 22.6021 9.90017 22.4191 9.65125C22.2361 9.40235 21.9906 9.19747 21.6784 9.02495L20.7774 8.53212L21.6708 8.03929C21.9829 7.86679 22.2361 7.66157 22.4191 7.41298C22.6021 7.16439 22.7169 6.85326 22.7169 6.51973C22.7169 6.1862 22.6021 5.87506 22.4191 5.62647C22.2361 5.37788 21.9829 5.17266 21.6708 5.00017L13.5385 0.503097C12.9142 0.158113 12.1394 0 11.3623 0ZM2.7413 8.98388L9.17839 12.5364C10.4269 13.2263 12.2823 13.2263 13.5309 12.5364L15.2719 11.5713L19.9832 8.98388L21.4417 9.78475C21.7004 9.92773 21.8814 10.0869 21.9838 10.2263C22.0863 10.3657 22.1136 10.4656 22.1136 10.5445C22.1136 10.6234 22.0863 10.7234 21.9838 10.8628C21.8814 11.0022 21.7004 11.1613 21.4417 11.3043L13.3018 15.8014C12.9135 16.0159 12.4146 16.1584 11.8891 16.2121C11.0133 16.3015 10.0622 16.1589 9.4151 15.8014L1.2752 11.3043C1.01645 11.1613 0.835536 11.0022 0.733049 10.8628C0.630563 10.7234 0.610874 10.6234 0.610874 10.5445C0.610874 10.4656 0.630565 10.3657 0.733049 10.2263C0.835534 10.0869 1.01645 9.92773 1.2752 9.78475L2.7413 8.98388ZM2.7413 13.0087L9.17839 16.5612C9.95873 16.9923 10.9768 17.1618 11.935 17.054C12.5098 16.9893 13.0627 16.8199 13.5309 16.5612L19.9832 13.0087L21.4417 13.8095C21.7004 13.9525 21.8814 14.1116 21.9838 14.251C22.0863 14.3904 22.1136 14.4904 22.1136 14.5693C22.1136 14.6482 22.0863 14.7482 21.9838 14.8876C21.8814 15.027 21.7004 15.1861 21.4417 15.3291L13.3018 19.8262C12.2664 20.3983 10.4505 20.3983 9.4151 19.8262L1.2752 15.3291C1.01645 15.1861 0.835534 15.027 0.733049 14.8876C0.630564 14.7482 0.610874 14.6482 0.610874 14.5693C0.610874 14.4904 0.630564 14.3904 0.733049 14.251C0.835534 14.1116 1.01645 13.9525 1.2752 13.8095L2.7413 13.0087Z" fill="#ffffff"/>
<path d="M11.3239 7.97876C10.9309 8.05961 10.5172 8.03651 10.0828 7.92102C9.64841 7.80553 9.23473 7.59765 8.84173 7.28583C8.26258 6.82387 7.95231 6.33881 7.89026 5.84221C7.83855 5.35715 8.05573 4.92984 8.55215 4.54872L9.82423 5.50729C9.64841 5.66897 9.55534 5.83066 9.55534 6.00389C9.55534 6.17713 9.64841 6.33881 9.83457 6.4774C10.0001 6.60444 10.1759 6.66218 10.3621 6.67373C10.5482 6.67373 10.7137 6.62753 10.8688 6.51205C11.0033 6.4081 11.0757 6.29261 11.0757 6.16558C11.0757 6.03854 11.0446 5.89995 10.9722 5.76136C10.8998 5.62277 10.7861 5.44954 10.6413 5.23011C10.4345 4.91829 10.2793 4.65266 10.1759 4.43323C10.0828 4.2138 10.0621 3.99437 10.1242 3.75184C10.1862 3.52086 10.3724 3.28988 10.6827 3.082C10.9722 2.88567 11.2825 2.77018 11.6341 2.72398C11.9858 2.67779 12.3477 2.71244 12.7201 2.80483C13.0924 2.89722 13.4543 3.07045 13.806 3.28988C14.3851 3.65945 14.7368 4.06366 14.8505 4.47943C14.9643 4.90674 14.8298 5.31095 14.4368 5.69207L13.0096 4.72196C13.1441 4.58337 13.2061 4.44478 13.1958 4.30619C13.1854 4.16761 13.0924 4.04057 12.9269 3.92508C12.7821 3.83269 12.627 3.77494 12.4615 3.76339C12.296 3.75184 12.1512 3.79804 12.0064 3.90198C11.8927 3.98282 11.8306 4.07521 11.8306 4.1907C11.8306 4.30619 11.8617 4.42168 11.9341 4.53717C12.0064 4.66421 12.1202 4.8259 12.2753 5.05688C12.5132 5.38025 12.6787 5.65742 12.8028 5.8884C12.9166 6.13093 12.9579 6.38501 12.9166 6.67373C12.8752 6.96245 12.6787 7.23963 12.3374 7.50526C12.0582 7.75933 11.7169 7.90947 11.3239 7.97876Z" fill="white"/>
<path d="M34.752 17.1924C33.9627 17.1924 33.2427 17.0644 32.592 16.8084C31.952 16.5417 31.4347 16.1471 31.04 15.6244C30.656 15.0911 30.448 14.4191 30.416 13.6084H33.072C33.1147 13.9817 33.264 14.3177 33.52 14.6164C33.7867 14.9151 34.1867 15.0644 34.72 15.0644C35.1787 15.0644 35.52 14.9631 35.744 14.7604C35.9787 14.5577 36.096 14.2911 36.096 13.9604C36.096 13.8111 36.0693 13.6724 36.016 13.5444C35.9733 13.4164 35.8827 13.2937 35.744 13.1764C35.6053 13.0484 35.392 12.9204 35.104 12.7924C34.8267 12.6644 34.4533 12.5257 33.984 12.3764C33.1093 12.0991 32.4267 11.7737 31.936 11.4004C31.4453 11.0271 31.0987 10.6271 30.896 10.2004C30.704 9.77373 30.608 9.3364 30.608 8.8884C30.6187 8.16307 30.8 7.5604 31.152 7.0804C31.504 6.58973 31.9733 6.22173 32.56 5.9764C33.1467 5.73107 33.8027 5.6084 34.528 5.6084C35.2533 5.6084 35.9147 5.7364 36.512 5.9924C37.12 6.23773 37.6107 6.60573 37.984 7.0964C38.3573 7.58707 38.5493 8.19507 38.56 8.9204H35.84C35.8293 8.6324 35.7067 8.3604 35.472 8.1044C35.2373 7.8484 34.8907 7.7204 34.432 7.7204C34.1013 7.73107 33.8187 7.82707 33.584 8.0084C33.36 8.17907 33.248 8.4244 33.248 8.7444C33.248 9.02173 33.3653 9.26173 33.6 9.4644C33.8347 9.66707 34.1653 9.85373 34.592 10.0244C35.0293 10.1951 35.536 10.3764 36.112 10.5684C36.5493 10.7177 36.9333 10.8937 37.264 11.0964C37.6053 11.2884 37.888 11.5177 38.112 11.7844C38.336 12.0404 38.5067 12.3337 38.624 12.6644C38.7413 12.9951 38.8 13.3684 38.8 13.7844C38.8 14.4671 38.624 15.0644 38.272 15.5764C37.9307 16.0884 37.456 16.4884 36.848 16.7764C36.24 17.0537 35.5413 17.1924 34.752 17.1924ZM42.3444 17.0004V7.9764H39.1284V5.8004H48.0884V7.9764H44.8564V17.0004H42.3444ZM46.8601 17.0004L50.9241 5.8004H53.8201L57.9001 17.0004H55.2281L54.4441 14.6804H50.2841L49.4841 17.0004H46.8601ZM50.9881 12.6644H53.7561L52.3481 8.5844L50.9881 12.6644ZM63.1235 17.1924C61.9608 17.1924 60.9688 16.9471 60.1475 16.4564C59.3262 15.9551 58.6968 15.2724 58.2595 14.4084C57.8328 13.5444 57.6195 12.5524 57.6195 11.4324C57.6195 10.3124 57.8275 9.31507 58.2435 8.4404C58.6702 7.55507 59.2942 6.86173 60.1155 6.3604C60.9368 5.85907 61.9395 5.6084 63.1235 5.6084C64.5102 5.6084 65.6515 5.9604 66.5475 6.6644C67.4435 7.35773 67.9928 8.3444 68.1955 9.6244H65.4275C65.3208 9.0804 65.0595 8.65907 64.6435 8.3604C64.2382 8.06173 63.7155 7.9124 63.0755 7.9124C62.5208 7.9124 62.0248 8.04573 61.5875 8.3124C61.1502 8.5684 60.8088 8.95773 60.5635 9.4804C60.3182 9.9924 60.1955 10.6431 60.1955 11.4324C60.1955 12.2004 60.3128 12.8457 60.5475 13.3684C60.7928 13.8804 61.1342 14.2697 61.5715 14.5364C62.0088 14.7924 62.5102 14.9204 63.0755 14.9204C63.7155 14.9204 64.2382 14.7871 64.6435 14.5204C65.0595 14.2431 65.3208 13.8537 65.4275 13.3524H68.1955C67.9928 14.5471 67.4435 15.4857 66.5475 16.1684C65.6515 16.8511 64.5102 17.1924 63.1235 17.1924ZM78.465 5.8004L74.545 10.0564L78.913 17.0004H75.985L72.881 11.8324L71.905 12.9044V17.0004H69.377V5.8004H71.905V9.5924L75.361 5.8004H78.465ZM82.9708 17.1924C82.1814 17.1924 81.4614 17.0644 80.8108 16.8084C80.1708 16.5417 79.6534 16.1471 79.2588 15.6244C78.8748 15.0911 78.6668 14.4191 78.6348 13.6084H81.2908C81.3334 13.9817 81.4828 14.3177 81.7388 14.6164C82.0054 14.9151 82.4054 15.0644 82.9388 15.0644C83.3974 15.0644 83.7388 14.9631 83.9628 14.7604C84.1974 14.5577 84.3148 14.2911 84.3148 13.9604C84.3148 13.8111 84.2881 13.6724 84.2348 13.5444C84.1921 13.4164 84.1014 13.2937 83.9628 13.1764C83.8241 13.0484 83.6108 12.9204 83.3228 12.7924C83.0454 12.6644 82.6721 12.5257 82.2028 12.3764C81.3281 12.0991 80.6454 11.7737 80.1548 11.4004C79.6641 11.0271 79.3174 10.6271 79.1148 10.2004C78.9228 9.77373 78.8268 9.3364 78.8268 8.8884C78.8374 8.16307 79.0188 7.5604 79.3708 7.0804C79.7228 6.58973 80.1921 6.22173 80.7788 5.9764C81.3654 5.73107 82.0214 5.6084 82.7468 5.6084C83.4721 5.6084 84.1334 5.7364 84.7308 5.9924C85.3388 6.23773 85.8294 6.60573 86.2028 7.0964C86.5761 7.58707 86.7681 8.19507 86.7788 8.9204H84.0588C84.0481 8.6324 83.9254 8.3604 83.6908 8.1044C83.4561 7.8484 83.1094 7.7204 82.6508 7.7204C82.3201 7.73107 82.0374 7.82707 81.8028 8.0084C81.5788 8.17907 81.4668 8.4244 81.4668 8.7444C81.4668 9.02173 81.5841 9.26173 81.8188 9.4644C82.0534 9.66707 82.3841 9.85373 82.8108 10.0244C83.2481 10.1951 83.7548 10.3764 84.3308 10.5684C84.7681 10.7177 85.1521 10.8937 85.4828 11.0964C85.8241 11.2884 86.1068 11.5177 86.3308 11.7844C86.5548 12.0404 86.7254 12.3337 86.8428 12.6644C86.9601 12.9951 87.0188 13.3684 87.0188 13.7844C87.0188 14.4671 86.8428 15.0644 86.4908 15.5764C86.1494 16.0884 85.6748 16.4884 85.0668 16.7764C84.4588 17.0537 83.7601 17.1924 82.9708 17.1924Z" fill="#ffffff"/>
</svg>
